<?xml version="1.0" standalone="no"?><svg xmlns="http://www.w3.org/2000/svg" viewBox="0 0 1440 320"><path fill="#0099ff" fill-opacity="1" d="M0,32L12.6,74.7C25.3,117,51,203,76,224C101.1,245,126,203,152,202.7C176.8,203,202,245,227,266.7C252.6,288,278,288,303,250.7C328.4,213,354,139,379,144C404.2,149,429,235,455,277.3C480,320,505,320,531,282.7C555.8,245,581,171,606,160C631.6,149,657,203,682,197.3C707.4,192,733,128,758,112C783.2,96,808,128,834,128C858.9,128,884,96,909,74.7C934.7,53,960,43,985,37.3C1010.5,32,1036,32,1061,26.7C1086.3,21,1112,11,1137,32C1162.1,53,1187,107,1213,160C1237.9,213,1263,267,1288,288C1313.7,309,1339,299,1364,293.3C1389.5,288,1415,288,1427,288L1440,288L1440,320L1427.4,320C1414.7,320,1389,320,1364,320C1338.9,320,1314,320,1288,320C1263.2,320,1238,320,1213,320C1187.4,320,1162,320,1137,320C1111.6,320,1086,320,1061,320C1035.8,320,1011,320,985,320C960,320,935,320,909,320C884.2,320,859,320,834,320C808.4,320,783,320,758,320C732.6,320,707,320,682,320C656.8,320,632,320,606,320C581.1,320,556,320,531,320C505.3,320,480,320,455,320C429.5,320,404,320,379,320C353.7,320,328,320,303,320C277.9,320,253,320,227,320C202.1,320,177,320,152,320C126.3,320,101,320,76,320C50.5,320,25,320,13,320L0,320Z"></path></svg>